<?xml version="1.0" encoding="utf-8"?>
<!-- Generator: Adobe Illustrator 22.0.1, SVG Export Plug-In . SVG Version: 6.00 Build 0)  -->
<svg version="1.1" id="Content" xmlns="http://www.w3.org/2000/svg" xmlns:xlink="http://www.w3.org/1999/xlink" x="0px" y="0px"
	 width="192px" height="192px" viewBox="0 0 192 192" enable-background="new 0 0 192 192" xml:space="preserve">
<rect id="bounding_box_8_" fill="none" width="192" height="192"/>
<g id="Display__x26__Video_360">
	<path fill="#81C995" d="M142.01,77.08c10.47-6.04,23.86-2.46,29.9,8.01s2.46,23.86-8.01,29.9L49.79,180.65
		c-10.47,6.04-23.86,2.46-29.9-8.01c-6.04-10.47-2.46-23.86,8.01-29.9L142.01,77.08z"/>
	<path fill="#34A853" d="M59,29.44c0-13.49-12.16-22.83-26-20c-10.1,2.07-17,10.58-17,21v133h43V29.44z"/>
	<path fill="#5BB974" d="M142,115c10.57,6.05,24.69,1.16,30-8c6.09-10.49,4.57-22.95-6-29L49,11c-11.47-6.43-23.79-2.62-30,8
		c-6.13,10.47-2.57,24.09,8,30.14L142,115z"/>
	<path fill="#81C995" d="M164,115L59,173l0.01-49L142,77c11.9-6.69,28.35-1.4,33,12C178.41,98.82,173.23,109.82,164,115z"/>
	<circle fill="#1E8E3E" cx="37.5" cy="162.5" r="21.5"/>
</g>
</svg>
