<svg xmlns="http://www.w3.org/2000/svg" width="108" height="36" viewBox="0 0 108 36">
  <defs>
    <style>
      .a{fill:#5f6368;}.b{fill:none;}.c{fill:#81c995;}.d{fill:#34a853;}.e{fill:#5bb974;}.f{fill:#1e8e3e;}
    </style>
  </defs>
  <title>lockup_icon_DisplayVidoe360_horiz_108x36px</title>
  <path class="a"
      d="M42.08,15.37V4.6294H45.365a5.3368,5.3368,0,0,1,3.96,1.4932A5.2585,5.2585,0,0,1,50.81,10a5.2609,5.2609,0,0,1-1.4853,3.878,5.3362,5.3362,0,0,1-3.96,1.4922Zm1.38-1.32H45.365a4.0288,4.0288,0,0,0,2.9473-1.0644A3.9856,3.9856,0,0,0,49.4,10,3.9907,3.9907,0,0,0,48.3123,7.022,4.0136,4.0136,0,0,0,45.365,5.95H43.46Z"/>
  <path class="a"
      d="M53.4344,6.1743a.9757.9757,0,0,1-1.38-1.38.9757.9757,0,0,1,1.38,1.38Zm0,9.1954h-1.38V8.02h1.38Z"/>
  <path class="a"
      d="M57.7889,15.61a3.3,3.3,0,0,1-2.0323-.6006,3.544,3.544,0,0,1-1.1777-1.5l1.23-.51a2.0331,2.0331,0,0,0,1.9951,1.38,1.82,1.82,0,0,0,1.0576-.2851.8727.8727,0,0,0,.4121-.75q0-.7192-1.0049-.9746l-1.4853-.36a3.5257,3.5257,0,0,1-1.335-.6826,1.6435,1.6435,0,0,1-.63-1.3574,1.8558,1.8558,0,0,1,.8623-1.5821A3.4641,3.4641,0,0,1,57.7293,7.78a3.4112,3.4112,0,0,1,1.74.4424A2.4938,2.4938,0,0,1,60.5642,9.49l-1.2.4951a1.6277,1.6277,0,0,0-1.68-.9756,1.9627,1.9627,0,0,0-1.0352.2549.7777.7777,0,0,0-.42.69q0,.63.9746.8555l1.4551.3447a2.7444,2.7444,0,0,1,1.53.8252,1.9884,1.9884,0,0,1,.4952,1.3193,2.046,2.046,0,0,1-.8106,1.65A3.1944,3.1944,0,0,1,57.7889,15.61Z"/>
  <path class="a"
      d="M65.699,15.61a3.122,3.122,0,0,1-1.5078-.36,2.5482,2.5482,0,0,1-.9971-.8994h-.06l.06,1.02v3.24H61.8133V8.02h1.32V9.04h.06a2.5427,2.5427,0,0,1,.9971-.9A3.1328,3.1328,0,0,1,65.699,7.78a3.2356,3.2356,0,0,1,2.46,1.125,3.9678,3.9678,0,0,1,1.0351,2.79,3.97,3.97,0,0,1-1.0351,2.79A3.2356,3.2356,0,0,1,65.699,15.61Zm-.2256-1.26a2.1974,2.1974,0,0,0,1.65-.7275,2.6867,2.6867,0,0,0,.6895-1.9277,2.687,2.687,0,0,0-.6895-1.9278,2.2517,2.2517,0,0,0-3.3076-.0078,2.6981,2.6981,0,0,0-.6826,1.9356,2.6955,2.6955,0,0,0,.6826,1.9345A2.1981,2.1981,0,0,0,65.4734,14.35Z"/>
  <path class="a" d="M71.7947,15.37H70.4139V4.6294h1.3808Z"/>
  <path class="a"
      d="M75.7381,15.61a2.9079,2.9079,0,0,1-1.958-.6748A2.2366,2.2366,0,0,1,72.993,13.15a2.2066,2.2066,0,0,1,.93-1.8828,3.7726,3.7726,0,0,1,2.295-.6826,3.9542,3.9542,0,0,1,1.9951.45v-.21a1.6419,1.6419,0,0,0-.5547-1.2978A1.9992,1.9992,0,0,0,76.2928,9.04a2.1217,2.1217,0,0,0-1.0879.2851,1.4739,1.4739,0,0,0-.667.78l-1.26-.54A2.8552,2.8552,0,0,1,74.283,8.3423a3.2181,3.2181,0,0,1,1.98-.5625,3.3961,3.3961,0,0,1,2.34.8252,2.9447,2.9447,0,0,1,.9307,2.3242V15.37h-1.32V14.35h-.06A2.7068,2.7068,0,0,1,75.7381,15.61Zm.2246-1.26a2.2484,2.2484,0,0,0,1.5527-.6377,1.9786,1.9786,0,0,0,.6973-1.5078,2.7187,2.7187,0,0,0-1.7549-.4795,2.2811,2.2811,0,0,0-1.5147.4346,1.3043,1.3043,0,0,0-.5107,1.0195.9823.9823,0,0,0,.4658.8555A1.8509,1.8509,0,0,0,75.9627,14.35Z"/>
  <path class="a"
      d="M82.6814,18.61H81.2556l1.71-3.7051L79.9363,8.02h1.5l2.1895,5.2792h.03l2.13-5.2792h1.5Z"/>
  <path class="a"
      d="M99.6014,11.53l-1.2452,1.9951L99.3611,14.83l-1.0351.78-.7354-.9756a3.5318,3.5318,0,0,1-2.4892.9756,3.8546,3.8546,0,0,1-2.7754-1.0957,3.5932,3.5932,0,0,1-1.14-2.6992,3.5143,3.5143,0,0,1,.4951-1.7852,3.832,3.832,0,0,1,1.3643-1.38,3.1718,3.1718,0,0,1-.7793-1.7851A2.3179,2.3179,0,0,1,93.031,5.11a2.5755,2.5755,0,0,1,1.83-.7207,2.3045,2.3045,0,0,1,1.5225.5176,2.7879,2.7879,0,0,1,.8779,1.2978l-1.1855.63q-.42-1.125-1.2149-1.125a1.24,1.24,0,0,0-.8555.3076,1.0788,1.0788,0,0,0-.3447.8477,1.5532,1.5532,0,0,0,.3447.96l3.5557,4.65.96-1.6054Zm-4.5,2.82a2.26,2.26,0,0,0,1.7246-.7207l-3.03-3.9746a2.7053,2.7053,0,0,0-.9824.93,2.2785,2.2785,0,0,0-.3672,1.23,2.3719,2.3719,0,0,0,.7724,1.8144A2.6581,2.6581,0,0,0,95.1014,14.35Z"/>
  <path class="a"
      d="M44.96,31.37l-3.7793-10.74H42.71l2.94,8.7149h.06l3.06-8.7149H50.3L46.4,31.37Z"/>
  <path class="a"
      d="M52.5193,22.1743a.977.977,0,1,1,.2852-.6894A.9366.9366,0,0,1,52.5193,22.1743Zm0,9.1954h-1.38V24.02h1.38Z"/>
  <path class="a"
      d="M57.26,31.61a3.2339,3.2339,0,0,1-2.46-1.125,4.2774,4.2774,0,0,1,0-5.58,3.2339,3.2339,0,0,1,2.46-1.125,3.1328,3.1328,0,0,1,1.5078.3594,2.5486,2.5486,0,0,1,.997.9h.0606l-.0606-1.02V20.6294h1.38V31.37H59.825V30.35h-.0606a2.5541,2.5541,0,0,1-.997.8994A3.122,3.122,0,0,1,57.26,31.61Zm.2255-1.26a2.1981,2.1981,0,0,0,1.6573-.7207,3.0841,3.0841,0,0,0,0-3.87,2.2517,2.2517,0,0,0-3.3076.0078,3.0362,3.0362,0,0,0,0,3.8555A2.1972,2.1972,0,0,0,57.4851,30.35Z"/>
  <path class="a"
      d="M66.1082,31.61A3.5453,3.5453,0,0,1,63.4,30.5a3.9374,3.9374,0,0,1-1.042-2.8046,4.0407,4.0407,0,0,1,1.0127-2.76A3.2845,3.2845,0,0,1,65.9578,23.78a3.392,3.392,0,0,1,2.6182,1.0645,4.0432,4.0432,0,0,1,.9824,2.8506l-.0156.2548H63.7381a2.4935,2.4935,0,0,0,.7422,1.7549,2.253,2.253,0,0,0,1.5976.6455,1.98,1.98,0,0,0,2.01-1.2607l1.23.5107a3.2987,3.2987,0,0,1-1.1855,1.4317A3.4437,3.4437,0,0,1,66.1082,31.61Zm1.98-4.8a1.9541,1.9541,0,0,0-.5772-1.2,2.064,2.064,0,0,0-1.582-.57,1.9786,1.9786,0,0,0-1.3281.48,2.4469,2.4469,0,0,0-.7725,1.29Z"/>
  <path class="a"
      d="M71.4549,24.897a3.8583,3.8583,0,0,1,5.4306,0,4.2078,4.2078,0,0,1,0,5.5947,3.8559,3.8559,0,0,1-5.4306,0,4.2078,4.2078,0,0,1,0-5.5947Zm1.0283,4.7256a2.3209,2.3209,0,0,0,3.375,0,2.966,2.966,0,0,0,0-3.8555,2.3209,2.3209,0,0,0-3.375,0,2.9629,2.9629,0,0,0,0,3.8555Z"/>
  <path class="a"
      d="M85.57,31.61a3.5983,3.5983,0,0,1-2.01-.6455,3.3269,3.3269,0,0,1-1.35-1.92l1.26-.5244a2.5679,2.5679,0,0,0,.7959,1.3046A1.9685,1.9685,0,0,0,85.57,30.29a2.1389,2.1389,0,0,0,1.4473-.5254,1.6533,1.6533,0,0,0,.6074-1.3047,1.6257,1.6257,0,0,0-.6221-1.29,2.2423,2.2423,0,0,0-1.4931-.5244h-.8848v-1.29h.78a2.01,2.01,0,0,0,1.3427-.45,1.4933,1.4933,0,0,0,.5323-1.2,1.3352,1.3352,0,0,0-.5176-1.11A2.0184,2.0184,0,0,0,85.48,22.19a1.7665,1.7665,0,0,0-1.7852,1.3349l-1.2754-.54a3.4859,3.4859,0,0,1,1.0654-1.4707A2.9907,2.9907,0,0,1,85.48,20.87a3.354,3.354,0,0,1,2.2949.8027,2.5887,2.5887,0,0,1,.915,2.0322A2.3439,2.3439,0,0,1,87.31,25.91v.06a2.9636,2.9636,0,0,1,1.2373.96,2.472,2.472,0,0,1,.4873,1.53A2.8886,2.8886,0,0,1,88.03,30.7173,3.5745,3.5745,0,0,1,85.57,31.61Z"/>
  <path class="a"
      d="M94.0017,24.815a3.0982,3.0982,0,0,1,2.2051.9824,3.2025,3.2025,0,0,1,1.0049,2.3769,3.2827,3.2827,0,0,1-1.043,2.4A3.3855,3.3855,0,0,1,93.7019,31.61a3.485,3.485,0,0,1-3.5254-3.4356,5.8053,5.8053,0,0,1,1.2-3.18l2.79-4.125,1.11.7646-2.4453,3.3906.03.0293A2.1563,2.1563,0,0,1,94.0017,24.815Zm-.3,5.46a2.0726,2.0726,0,0,0,1.4922-.6006,2.0715,2.0715,0,0,0,0-2.9619,2.0594,2.0594,0,0,0-1.4922-.6074,2.0856,2.0856,0,0,0-1.5.6074,2.065,2.065,0,0,0-.0078,2.9619A2.0912,2.0912,0,0,0,93.7019,30.2749Z"/>
  <path class="a"
      d="M105.4392,30.065a3.6569,3.6569,0,0,1-5.9707,0,6.2672,6.2672,0,0,1-1.14-3.8252,6.2609,6.2609,0,0,1,1.14-3.833,3.6676,3.6676,0,0,1,5.9707,0,6.26,6.26,0,0,1,1.14,3.833A6.2666,6.2666,0,0,1,105.4392,30.065Zm-2.9853.2246a2.2539,2.2539,0,0,0,1.9726-1.1553,5.2488,5.2488,0,0,0,.7422-2.8945,5.2428,5.2428,0,0,0-.7422-2.9024,2.2753,2.2753,0,0,0-3.9521,0A5.2841,5.2841,0,0,0,99.739,26.24a5.29,5.29,0,0,0,.7354,2.8945A2.2467,2.2467,0,0,0,102.4539,30.29Z"/>
  <rect class="b" width="108" height="36"/>
  <path class="c"
      d="M23.8725,14.5544a3.9882,3.9882,0,1,1,3.9892,6.9071L7.1333,33.425A3.9882,3.9882,0,1,1,3.144,26.5179Z"/>
  <path class="d"
      d="M8.9984,6.0152A4.0035,4.0035,0,0,0,4.164,2.1019,4.0893,4.0893,0,0,0,1,6.1578V29.931l7.9984.1423Z"/>
  <path class="e"
      d="M23.9559,21.4748a4.1792,4.1792,0,0,0,5.4516-1.468,3.9521,3.9521,0,0,0-1.4226-5.4478L7.0519,2.5686A3.9424,3.9424,0,0,0,1.5462,4.0419,3.97,3.97,0,0,0,3.0209,9.4963Z"/>
  <path class="c"
      d="M27.8462,21.5,8.9989,32.0674l-.0005-9.0758,14.9395-8.3732a4.0849,4.0849,0,0,1,5.8644,2.1835A3.9806,3.9806,0,0,1,27.8462,21.5Z"/>
  <circle class="f" cx="4.9992" cy="30.0022" r="3.9985"/>
</svg>
